<?xml version="1.0" standalone="no"?>
<!DOCTYPE svg PUBLIC "-//W3C//DTD SVG 20010904//EN"
 "http://www.w3.org/TR/2001/REC-SVG-20010904/DTD/svg10.dtd">
<svg version="1.0" xmlns="http://www.w3.org/2000/svg"
 width="512.000000pt" height="512.000000pt" viewBox="0 0 512.000000 512.000000"
 preserveAspectRatio="xMidYMid meet">
<metadata>
Created by potrace 1.11, written by Peter Selinger 2001-2013
</metadata>
<g transform="translate(0.000000,512.000000) scale(0.100000,-0.100000)"
fill="#000000" stroke="none">
<path d="M2195 5051 c-2 -5 -30 -11 -62 -14 -32 -4 -69 -9 -83 -12 -46 -9
-207 -65 -266 -92 -33 -14 -62 -26 -66 -25 -3 1 -12 -5 -18 -13 -7 -8 -18 -15
-24 -15 -7 0 -22 -9 -34 -20 -12 -11 -24 -20 -27 -20 -2 -1 -10 -2 -17 -4 -7
-2 -31 -9 -53 -15 -121 -33 -179 -53 -260 -90 -137 -61 -145 -65 -145 -73 0
-5 -6 -8 -14 -8 -8 0 -21 -6 -28 -13 -7 -6 -30 -21 -50 -32 -21 -11 -38 -23
-38 -27 0 -5 -5 -8 -10 -8 -14 0 -210 -196 -210 -210 0 -5 -3 -10 -8 -10 -4 0
-16 -17 -27 -37 -11 -21 -22 -40 -25 -43 -12 -11 -90 -142 -90 -151 0 -5 -3
-9 -8 -9 -4 0 -16 -17 -27 -37 -11 -21 -23 -40 -26 -43 -11 -8 -57 -112 -70
-157 -7 -24 -16 -43 -21 -43 -4 0 -8 -9 -8 -20 0 -12 -7 -34 -15 -50 -9 -17
-13 -30 -9 -30 4 0 2 -6 -4 -12 -5 -7 -29 -89 -53 -183 l-43 -170 -4 -245 c-4
-224 9 -436 26 -465 4 -5 8 -19 9 -30 7 -44 37 -172 48 -206 14 -39 19 -32
-65 -98 -20 -15 -25 -28 -25 -64 0 -83 39 -117 137 -117 27 0 37 -5 40 -17 4
-22 -62 -90 -115 -118 -20 -11 -37 -23 -37 -27 0 -5 -5 -8 -11 -8 -25 0 -59
-51 -59 -88 0 -90 15 -99 164 -107 173 -8 170 -7 190 -76 10 -32 21 -59 25
-59 3 0 15 -18 25 -40 11 -22 23 -40 28 -40 4 0 8 -6 8 -14 0 -7 11 -22 25
-32 14 -10 25 -23 25 -29 0 -5 13 -20 28 -33 15 -12 42 -35 61 -51 l34 -29
-23 -12 c-26 -14 -216 -203 -240 -239 -18 -27 -62 -79 -107 -127 -18 -19 -33
-41 -33 -48 0 -8 -3 -16 -7 -18 -13 -5 -63 -76 -63 -87 0 -6 -3 -11 -8 -11 -4
0 -16 -16 -26 -35 -11 -19 -22 -35 -26 -35 -4 0 -10 -8 -14 -18 -6 -18 -27
-54 -37 -62 -3 -3 -14 -18 -23 -35 -9 -16 -25 -43 -35 -60 -10 -16 -28 -47
-40 -68 -12 -21 -40 -71 -62 -110 -23 -40 -50 -88 -61 -107 -11 -19 -25 -41
-31 -49 -6 -7 -12 -20 -13 -29 -2 -8 -7 -18 -13 -21 -22 -14 -51 -98 -51 -148
l0 -53 445 0 c249 0 445 4 445 9 0 5 8 26 17 47 9 22 17 41 18 44 4 26 61 170
67 170 5 0 8 7 8 16 0 8 13 42 29 75 17 32 27 59 24 59 -3 0 -1 6 5 12 5 7 34
67 63 133 29 66 56 122 59 125 4 3 15 23 25 45 11 22 29 57 42 78 13 20 21 37
18 37 -3 0 5 17 18 38 13 20 43 78 67 127 44 88 80 141 80 117 0 -7 6 -12 14
-12 8 0 29 -41 51 -102 21 -57 47 -120 57 -140 10 -21 16 -38 13 -38 -3 0 3
-17 14 -38 10 -20 20 -41 21 -47 2 -5 13 -26 25 -45 12 -19 25 -45 29 -56 4
-12 15 -32 26 -44 11 -13 20 -26 20 -29 -1 -12 -29 -43 -42 -45 -38 -6 -168
-88 -221 -139 -33 -32 -73 -65 -88 -73 -31 -16 -97 -58 -116 -74 -7 -5 -16
-10 -20 -10 -12 0 -60 -39 -107 -86 -24 -24 -50 -65 -63 -98 l-21 -56 2049 0
2049 0 0 619 0 618 -40 7 c-22 3 -52 4 -65 1 -14 -3 -36 -7 -49 -10 -25 -5
-76 -51 -110 -98 -10 -15 -22 -24 -27 -21 -15 9 -143 6 -171 -5 -24 -9 -32 -7
-54 14 -19 17 -42 25 -90 31 -85 9 -136 1 -193 -29 -34 -17 -50 -21 -58 -13
-27 25 -41 35 -46 30 -2 -2 -10 2 -17 11 -7 8 -18 15 -26 15 -7 0 -17 6 -21
13 -4 7 -20 20 -35 30 l-28 17 0 139 c0 76 3 206 7 289 l6 151 42 6 c40 7 90
42 167 117 15 16 32 28 38 28 6 0 16 12 23 28 6 15 15 32 20 37 22 29 56 85
61 102 4 11 24 28 45 39 63 30 75 55 152 299 36 114 42 208 27 388 -9 102 -8
110 12 143 12 19 27 40 33 47 19 19 39 62 37 78 -6 40 4 63 50 109 47 47 50
54 50 101 0 76 -9 85 -99 105 -44 10 -77 22 -75 26 3 4 0 8 -5 8 -6 0 -11 13
-11 29 0 16 -5 31 -10 33 -6 2 -30 59 -55 128 -40 114 -98 243 -124 274 -6 7
-8 16 -4 19 3 4 1 7 -5 7 -7 0 -11 4 -10 8 4 11 -91 171 -114 194 -10 10 -18
21 -18 24 0 3 -6 12 -12 19 -30 33 -36 43 -32 48 3 3 -4 10 -15 17 -12 6 -21
17 -21 25 0 8 -4 15 -10 15 -5 0 -10 4 -10 10 0 16 -50 69 -211 225 -42 40
-88 72 -129 92 -8 4 -24 15 -34 25 -11 10 -26 18 -33 18 -7 0 -13 5 -13 12 0
6 -3 8 -7 5 -3 -4 -14 0 -24 9 -9 8 -23 17 -31 18 -36 7 -74 20 -83 27 -5 4
-14 8 -20 8 -5 1 -28 7 -50 13 -22 6 -58 15 -80 19 -95 19 -123 27 -170 51
-45 23 -171 72 -300 118 -47 17 -169 46 -225 54 -14 1 -32 6 -40 9 -8 3 -58
13 -109 22 -100 16 -466 21 -476 6z m899 -4378 c4 -12 11 -23 16 -23 6 0 10
-6 10 -13 0 -7 6 -19 13 -25 6 -7 12 -16 12 -20 0 -4 9 -18 20 -30 11 -13 28
-33 38 -44 9 -12 17 -25 17 -30 0 -5 8 -17 17 -26 16 -16 14 -17 -21 -20 -21
-2 -53 -12 -71 -22 -33 -19 -33 -19 -61 5 -29 25 -49 36 -105 58 -30 12 -37
21 -42 53 -4 23 0 63 11 101 l16 64 63 -2 c56 -2 62 -4 67 -26z"/>
</g>
</svg>
